<svg width="16" height="16" viewBox="0 0 16 16" fill="none" xmlns="http://www.w3.org/2000/svg">
<path d="M4.78516 5.5C4.86649 5.5 4.94721 5.50461 5.02637 5.51367C5.34322 5.58458 5.6591 5.67473 5.95703 5.7959L6.25488 5.93066C6.58788 6.09969 6.85857 6.30405 7.05859 6.55371L7.13965 6.66406C7.33914 6.95567 7.49219 7.36447 7.49219 7.97266C7.49225 9.05609 7.85662 9.90683 8.39746 10.5664H4.88477C4.72104 10.5664 4.56476 10.5377 4.4209 10.4854L4.3877 10.4736L4.35352 10.4658L4.16211 10.416C3.22285 10.1235 2.5002 9.17458 2.5 8.00586C2.5 6.58585 3.55812 5.5002 4.78516 5.5Z" stroke="#0000FF"/>
<path d="M15 8.06127C15 6.59894 14.032 5.38051 12.7496 5.11129C12.5516 5.03927 12.338 4.99999 12.115 4.99999L7.78721 4.99999C7.64208 4.99999 7.57887 5.19331 7.68969 5.2867C8.44604 5.92408 9.00814 6.82234 9.00814 8.09429C9.00814 8.79319 9.18585 9.30222 9.44764 9.6849C9.7124 10.072 10.0848 10.3613 10.5192 10.5817C10.9576 10.8041 11.4336 10.9458 11.8881 11.0462C11.9952 11.0597 12.1041 11.0667 12.2145 11.0667C13.7529 11.0667 15 9.72109 15 8.06127Z" fill="#2400FF"/>
</svg>
