<svg width="400" height="100" viewBox="0 0 400 100" fill="none" xmlns="http://www.w3.org/2000/svg">
<path d="M106.592 49.3613C106.592 55.209 109.188 58.1328 114.379 58.1328C119.441 58.1328 121.973 55.209 121.973 49.3613C121.973 43.6074 119.441 40.7305 114.379 40.7305C109.188 40.7305 106.592 43.6074 106.592 49.3613ZM101.758 49.4668C101.758 40.9473 105.965 36.6875 114.379 36.6875C122.664 36.6875 126.807 40.9473 126.807 49.4668C126.807 57.9395 122.664 62.1758 114.379 62.1758C106.34 62.1758 102.133 57.9395 101.758 49.4668ZM130.779 62V43.543H134.383L134.963 46.25C136.732 44.4453 138.748 43.543 141.01 43.543C145.381 43.543 147.566 45.8164 147.566 50.3633V62H142.908V50.3633C142.908 48.3242 141.895 47.3047 139.867 47.3047C138.355 47.3047 136.879 47.9082 135.438 49.1152V62H130.779ZM156.637 36.8633V62H151.979V36.8633H156.637ZM158.852 43.543H163.791L168.449 56.832L173.002 43.543H177.854L170.189 62.5449C168.83 65.8965 166.656 68.2812 163.668 69.6992L161.418 66.5176C163.48 65.6152 164.98 64.1445 165.918 62.1055L158.852 43.543Z" fill="#0000FF"/>
<path d="M200.547 60.9453C198.379 61.7656 195.918 62.1758 193.164 62.1758C184.141 62.1758 179.629 57.8105 179.629 49.0801C179.629 40.8184 184.141 36.6875 193.164 36.6875C195.918 36.6875 198.379 37.0977 200.547 37.918V42.1367C198.379 41.1992 196.035 40.7305 193.516 40.7305C187.48 40.7305 184.463 43.5137 184.463 49.0801C184.463 55.1152 187.48 58.1328 193.516 58.1328C196.035 58.1328 198.379 57.6641 200.547 56.7266V60.9453ZM208.281 52.7012C208.281 56.5566 209.775 58.4844 212.764 58.4844C215.752 58.4844 217.246 56.5566 217.246 52.7012C217.246 48.9395 215.752 47.0586 212.764 47.0586C209.775 47.0586 208.281 48.9395 208.281 52.7012ZM203.623 52.7715C203.623 46.584 206.67 43.4902 212.764 43.4902C218.857 43.4902 221.904 46.584 221.904 52.7715C221.904 58.9473 218.857 62.0352 212.764 62.0352C206.693 62.0352 203.646 58.9473 203.623 52.7715ZM225.42 62V43.543H229.023L229.568 46.2148C231.221 44.4336 233.207 43.543 235.527 43.543C237.848 43.543 239.436 44.3867 240.291 46.0742C242.178 44.3867 244.152 43.543 246.215 43.543C250.457 43.543 252.578 45.8809 252.578 50.5566V62H247.92V50.3809C247.92 48.3301 246.994 47.3047 245.143 47.3047C243.76 47.3047 242.43 47.9258 241.152 49.168V62H236.494V50.4336C236.494 48.3477 235.639 47.3047 233.928 47.3047C232.568 47.3047 231.285 47.9258 230.078 49.168V62H225.42ZM256.99 62V43.543H260.594L261.139 46.2148C262.791 44.4336 264.777 43.543 267.098 43.543C269.418 43.543 271.006 44.3867 271.861 46.0742C273.748 44.3867 275.723 43.543 277.785 43.543C282.027 43.543 284.148 45.8809 284.148 50.5566V62H279.49V50.3809C279.49 48.3301 278.564 47.3047 276.713 47.3047C275.33 47.3047 274 47.9258 272.723 49.168V62H268.064V50.4336C268.064 48.3477 267.209 47.3047 265.498 47.3047C264.139 47.3047 262.855 47.9258 261.648 49.168V62H256.99ZM296.348 43.543C301.949 43.543 304.75 46.4023 304.75 52.1211C304.75 52.8828 304.697 53.6445 304.592 54.4062H292.34C292.34 57.0078 294.25 58.3086 298.07 58.3086C299.934 58.3086 301.797 58.1328 303.66 57.7812V61.4727C302.031 61.8242 300.051 62 297.719 62C291.027 62 287.682 58.8535 287.682 52.5605C287.682 46.5488 290.57 43.543 296.348 43.543ZM292.34 51.1719H300.215V51.0312C300.215 48.4766 298.926 47.1992 296.348 47.1992C293.887 47.1992 292.551 48.5234 292.34 51.1719ZM308.248 62V43.543H311.852L312.432 46.25C314.201 44.4453 316.217 43.543 318.479 43.543C322.85 43.543 325.035 45.8164 325.035 50.3633V62H320.377V50.3633C320.377 48.3242 319.363 47.3047 317.336 47.3047C315.824 47.3047 314.348 47.9082 312.906 49.1152V62H308.248ZM329.184 40.5547H332.629L333.332 43.543H337.973V47.2344H333.842V55.7246C333.842 57.4473 334.586 58.3086 336.074 58.3086H337.973V62H333.824C330.73 62 329.184 60.3418 329.184 57.0254V40.5547ZM341.154 61.1211V57.2539C343.205 58.0742 345.572 58.4844 348.256 58.4844C350.26 58.4844 351.262 57.8398 351.262 56.5508C351.262 55.3203 350.588 54.7051 349.24 54.7051H345.9C342.15 54.7051 340.275 52.8594 340.275 49.168C340.275 45.3008 343.012 43.3672 348.484 43.3672C350.805 43.3672 352.99 43.7188 355.041 44.4219V48.2891C352.99 47.4688 350.764 47.0586 348.361 47.0586C345.842 47.0586 344.582 47.7031 344.582 48.9922C344.582 50.2227 345.314 50.8379 346.779 50.8379H349.768C353.869 50.8379 355.92 52.6836 355.92 56.375C355.92 60.2422 353.307 62.1758 348.08 62.1758C345.514 62.1758 343.205 61.8242 341.154 61.1211Z" fill="#2400FF"/>
<path d="M26.4473 31.5C27.1095 31.5 27.7636 31.5413 28.4062 31.6211C31.0475 32.2058 33.7859 33.0112 36.332 34.2324L36.8408 34.4834C39.3413 35.7524 41.4831 37.3808 43.0586 39.5059L43.3662 39.9375C44.9436 42.2434 46.0312 45.3314 46.0312 49.6182C46.0313 57.5028 49.4155 63.154 54.0186 67.2002L54.4678 67.5869C54.633 67.7263 54.683 67.9491 54.6113 68.1631C54.5406 68.3738 54.3797 68.5 54.1787 68.5H27.0703C25.7332 68.5 24.4523 68.2644 23.2666 67.833L23.2334 67.8213L23.1992 67.8135L22.835 67.7324C15.2342 65.9476 9.50012 58.6295 9.5 49.8252C9.5 39.6683 17.1224 31.5002 26.4473 31.5Z" stroke="#0000FF"/>
<path d="M90.4286 50.1751C90.4286 41.0154 84.3652 33.3835 76.3325 31.6972C75.0927 31.2461 73.7542 31 72.3579 31L45.2495 31C44.3405 31 43.9446 32.2109 44.6387 32.7959C49.3763 36.7883 52.8971 42.4147 52.8971 50.3819C52.8971 54.7596 54.0102 57.948 55.6501 60.3451C57.3084 62.7696 59.641 64.5817 62.3619 65.9626C65.108 67.3555 68.0895 68.2429 70.9366 68.872C71.6072 68.9563 72.2895 69 72.9809 69C82.6172 69 90.4286 60.5718 90.4286 50.1751Z" fill="#2400FF"/>
</svg>
